<?xml version="1.0" encoding="utf-8"?>
<!-- Generator: Adobe Illustrator 27.0.0, SVG Export Plug-In . SVG Version: 6.00 Build 0)  -->
<svg version="1.1" id="Layer_1" xmlns="http://www.w3.org/2000/svg" xmlns:xlink="http://www.w3.org/1999/xlink" x="0px"
	y="0px" viewBox="0 0 29 29" style="enable-background:new 0 0 29 29;" xml:space="preserve">
	<style type="text/css">
		.st0 {
			display: none;
			fill: #FFFFFF;
		}

		.st1 {
			fill: #FFFFFF;
		}
	</style>
	<path id="stroke" class="st0" d="M20.3,7.2l1.4,1.5l-13,13l-1.5-1.4L20.3,7.2z" />
	<g id="surface1">
		<path class="st1" d="M14.5,5.8c4.6,0,7.6,1.2,7.6,2.7v1.6c0.6,0,1.1,0.5,1.1,1.1v2.2c0,0.6-0.5,1.1-1.1,1.1v5.4
		c0,0.6-0.5,1.1-1.1,1.1v1.1c0,0.6-0.5,1.1-1.1,1.1h-1.1c-0.6,0-1.1-0.5-1.1-1.1V21h-6.5v1.1c0,0.6-0.5,1.1-1.1,1.1H9.1
		c-0.6,0-1.1-0.5-1.1-1.1V21c-0.6,0-1.1-0.5-1.1-1.1v-5.4c-0.6,0-1.1-0.5-1.1-1.1v-2.2c0-0.6,0.5-1.1,1.1-1.1V8.5
		C6.9,7,9.9,5.8,14.5,5.8z M9.1,11.2v3.3c0,0.6,0.5,1.1,1.1,1.1H14v-5.4h-3.8C9.5,10.1,9.1,10.6,9.1,11.2z M15,15.6h3.8
		c0.6,0,1.1-0.5,1.1-1.1v-3.3c0-0.6-0.5-1.1-1.1-1.1H15V15.6z M9.6,19.4c0.6,0,1.1-0.5,1.1-1.1c0-0.6-0.5-1.1-1.1-1.1
		s-1.1,0.5-1.1,1.1C8.5,18.9,9,19.4,9.6,19.4z M19.4,19.4c0.6,0,1.1-0.5,1.1-1.1c0-0.6-0.5-1.1-1.1-1.1c-0.6,0-1.1,0.5-1.1,1.1
		C18.3,18.9,18.8,19.4,19.4,19.4z M17.8,8.5c0-0.3-0.2-0.5-0.5-0.5h-5.4c-0.3,0-0.5,0.2-0.5,0.5s0.2,0.5,0.5,0.5h5.4
		C17.5,9.1,17.8,8.8,17.8,8.5z" />
	</g>
</svg>